<mxfile host="app.diagrams.net" modified="2023-09-25T19:16:34.824Z" agent="Mozilla/5.0 (Windows NT 10.0; Win64; x64) AppleWebKit/537.36 (KHTML, like Gecko) Chrome/116.0.0.0 Safari/537.36" etag="8EFuwPrq-JMolRrMN4bq" version="21.8.2" type="device">
  <diagram id="C5RBs43oDa-KdzZeNtuy" name="Page-1">
    <mxGraphModel dx="2442" dy="822" grid="1" gridSize="10" guides="1" tooltips="1" connect="1" arrows="1" fold="1" page="1" pageScale="1" pageWidth="827" pageHeight="1169" math="0" shadow="0">
      <root>
        <mxCell id="WIyWlLk6GJQsqaUBKTNV-0" />
        <mxCell id="WIyWlLk6GJQsqaUBKTNV-1" parent="WIyWlLk6GJQsqaUBKTNV-0" />
        <mxCell id="zkfFHV4jXpPFQw0GAbJ--6" value="Name" style="swimlane;fontStyle=0;align=center;verticalAlign=top;childLayout=stackLayout;horizontal=1;startSize=26;horizontalStack=0;resizeParent=1;resizeLast=0;collapsible=1;marginBottom=0;rounded=0;shadow=0;strokeWidth=1;" parent="WIyWlLk6GJQsqaUBKTNV-1" vertex="1">
          <mxGeometry x="-750" y="230" width="70" height="40" as="geometry">
            <mxRectangle x="130" y="380" width="160" height="26" as="alternateBounds" />
          </mxGeometry>
        </mxCell>
        <mxCell id="zkfFHV4jXpPFQw0GAbJ--9" value="" style="line;html=1;strokeWidth=1;align=left;verticalAlign=middle;spacingTop=-1;spacingLeft=3;spacingRight=3;rotatable=0;labelPosition=right;points=[];portConstraint=eastwest;" parent="zkfFHV4jXpPFQw0GAbJ--6" vertex="1">
          <mxGeometry y="26" width="70" height="8" as="geometry" />
        </mxCell>
        <mxCell id="AHpccQ2gOZ4yS9qdblrX-139" value="" style="group" vertex="1" connectable="0" parent="WIyWlLk6GJQsqaUBKTNV-1">
          <mxGeometry x="-720" y="30" width="550" height="650" as="geometry" />
        </mxCell>
        <mxCell id="zkfFHV4jXpPFQw0GAbJ--0" value="Field" style="swimlane;fontStyle=0;align=center;verticalAlign=top;childLayout=stackLayout;horizontal=1;startSize=26;horizontalStack=0;resizeParent=1;resizeLast=0;collapsible=1;marginBottom=0;rounded=0;shadow=0;strokeWidth=1;" parent="AHpccQ2gOZ4yS9qdblrX-139" vertex="1">
          <mxGeometry x="60" y="90" width="160" height="70" as="geometry">
            <mxRectangle x="230" y="140" width="160" height="26" as="alternateBounds" />
          </mxGeometry>
        </mxCell>
        <mxCell id="zkfFHV4jXpPFQw0GAbJ--1" value="- value" style="text;align=left;verticalAlign=top;spacingLeft=4;spacingRight=4;overflow=hidden;rotatable=0;points=[[0,0.5],[1,0.5]];portConstraint=eastwest;" parent="zkfFHV4jXpPFQw0GAbJ--0" vertex="1">
          <mxGeometry y="26" width="160" height="26" as="geometry" />
        </mxCell>
        <mxCell id="zkfFHV4jXpPFQw0GAbJ--4" value="" style="line;html=1;strokeWidth=1;align=left;verticalAlign=middle;spacingTop=-1;spacingLeft=3;spacingRight=3;rotatable=0;labelPosition=right;points=[];portConstraint=eastwest;" parent="zkfFHV4jXpPFQw0GAbJ--0" vertex="1">
          <mxGeometry y="52" width="160" height="8" as="geometry" />
        </mxCell>
        <mxCell id="zkfFHV4jXpPFQw0GAbJ--12" value="" style="endArrow=block;endSize=10;endFill=0;shadow=0;strokeWidth=1;rounded=0;edgeStyle=elbowEdgeStyle;elbow=vertical;" parent="AHpccQ2gOZ4yS9qdblrX-139" source="zkfFHV4jXpPFQw0GAbJ--6" target="zkfFHV4jXpPFQw0GAbJ--0" edge="1">
          <mxGeometry width="160" relative="1" as="geometry">
            <mxPoint x="220" y="283" as="sourcePoint" />
            <mxPoint x="220" y="283" as="targetPoint" />
          </mxGeometry>
        </mxCell>
        <mxCell id="AHpccQ2gOZ4yS9qdblrX-0" value="&lt;font style=&quot;font-size: 20px;&quot;&gt;&lt;b&gt;AddressBook.py&lt;/b&gt;&lt;/font&gt;" style="text;html=1;strokeColor=none;fillColor=none;align=center;verticalAlign=middle;whiteSpace=wrap;rounded=0;" vertex="1" parent="AHpccQ2gOZ4yS9qdblrX-139">
          <mxGeometry x="190" width="180" height="30" as="geometry" />
        </mxCell>
        <mxCell id="AHpccQ2gOZ4yS9qdblrX-16" value="" style="endArrow=none;html=1;rounded=0;" edge="1" parent="AHpccQ2gOZ4yS9qdblrX-139">
          <mxGeometry width="50" height="50" relative="1" as="geometry">
            <mxPoint x="90" y="200" as="sourcePoint" />
            <mxPoint x="90" y="180" as="targetPoint" />
          </mxGeometry>
        </mxCell>
        <mxCell id="AHpccQ2gOZ4yS9qdblrX-18" value="" style="endArrow=none;html=1;rounded=0;" edge="1" parent="AHpccQ2gOZ4yS9qdblrX-139">
          <mxGeometry width="50" height="50" relative="1" as="geometry">
            <mxPoint x="179.57999999999998" y="200" as="sourcePoint" />
            <mxPoint x="180" y="180" as="targetPoint" />
          </mxGeometry>
        </mxCell>
        <mxCell id="AHpccQ2gOZ4yS9qdblrX-19" value="" style="endArrow=none;html=1;rounded=0;" edge="1" parent="AHpccQ2gOZ4yS9qdblrX-139">
          <mxGeometry width="50" height="50" relative="1" as="geometry">
            <mxPoint x="140" y="180" as="sourcePoint" />
            <mxPoint x="320" y="180" as="targetPoint" />
          </mxGeometry>
        </mxCell>
        <mxCell id="AHpccQ2gOZ4yS9qdblrX-23" value="Address" style="swimlane;fontStyle=0;align=center;verticalAlign=top;childLayout=stackLayout;horizontal=1;startSize=26;horizontalStack=0;resizeParent=1;resizeLast=0;collapsible=1;marginBottom=0;rounded=0;shadow=0;strokeWidth=1;" vertex="1" parent="AHpccQ2gOZ4yS9qdblrX-139">
          <mxGeometry x="50" y="200" width="70" height="40" as="geometry">
            <mxRectangle x="130" y="380" width="160" height="26" as="alternateBounds" />
          </mxGeometry>
        </mxCell>
        <mxCell id="AHpccQ2gOZ4yS9qdblrX-24" value="" style="line;html=1;strokeWidth=1;align=left;verticalAlign=middle;spacingTop=-1;spacingLeft=3;spacingRight=3;rotatable=0;labelPosition=right;points=[];portConstraint=eastwest;" vertex="1" parent="AHpccQ2gOZ4yS9qdblrX-23">
          <mxGeometry y="26" width="70" height="8" as="geometry" />
        </mxCell>
        <mxCell id="AHpccQ2gOZ4yS9qdblrX-25" value="Phone" style="swimlane;fontStyle=0;align=center;verticalAlign=top;childLayout=stackLayout;horizontal=1;startSize=26;horizontalStack=0;resizeParent=1;resizeLast=0;collapsible=1;marginBottom=0;rounded=0;shadow=0;strokeWidth=1;" vertex="1" parent="AHpccQ2gOZ4yS9qdblrX-139">
          <mxGeometry x="130" y="200" width="70" height="40" as="geometry">
            <mxRectangle x="130" y="380" width="160" height="26" as="alternateBounds" />
          </mxGeometry>
        </mxCell>
        <mxCell id="AHpccQ2gOZ4yS9qdblrX-26" value="" style="line;html=1;strokeWidth=1;align=left;verticalAlign=middle;spacingTop=-1;spacingLeft=3;spacingRight=3;rotatable=0;labelPosition=right;points=[];portConstraint=eastwest;" vertex="1" parent="AHpccQ2gOZ4yS9qdblrX-25">
          <mxGeometry y="26" width="70" height="8" as="geometry" />
        </mxCell>
        <mxCell id="AHpccQ2gOZ4yS9qdblrX-27" value="" style="endArrow=none;html=1;rounded=0;" edge="1" parent="AHpccQ2gOZ4yS9qdblrX-139">
          <mxGeometry width="50" height="50" relative="1" as="geometry">
            <mxPoint x="244.57999999999998" y="200" as="sourcePoint" />
            <mxPoint x="244.57999999999998" y="180" as="targetPoint" />
          </mxGeometry>
        </mxCell>
        <mxCell id="AHpccQ2gOZ4yS9qdblrX-28" value="Email" style="swimlane;fontStyle=0;align=center;verticalAlign=top;childLayout=stackLayout;horizontal=1;startSize=26;horizontalStack=0;resizeParent=1;resizeLast=0;collapsible=1;marginBottom=0;rounded=0;shadow=0;strokeWidth=1;" vertex="1" parent="AHpccQ2gOZ4yS9qdblrX-139">
          <mxGeometry x="210" y="200" width="70" height="40" as="geometry">
            <mxRectangle x="130" y="380" width="160" height="26" as="alternateBounds" />
          </mxGeometry>
        </mxCell>
        <mxCell id="AHpccQ2gOZ4yS9qdblrX-29" value="" style="line;html=1;strokeWidth=1;align=left;verticalAlign=middle;spacingTop=-1;spacingLeft=3;spacingRight=3;rotatable=0;labelPosition=right;points=[];portConstraint=eastwest;" vertex="1" parent="AHpccQ2gOZ4yS9qdblrX-28">
          <mxGeometry y="26" width="70" height="8" as="geometry" />
        </mxCell>
        <mxCell id="AHpccQ2gOZ4yS9qdblrX-30" value="Birthday" style="swimlane;fontStyle=0;align=center;verticalAlign=top;childLayout=stackLayout;horizontal=1;startSize=26;horizontalStack=0;resizeParent=1;resizeLast=0;collapsible=1;marginBottom=0;rounded=0;shadow=0;strokeWidth=1;" vertex="1" parent="AHpccQ2gOZ4yS9qdblrX-139">
          <mxGeometry x="290" y="200" width="70" height="40" as="geometry">
            <mxRectangle x="130" y="380" width="160" height="26" as="alternateBounds" />
          </mxGeometry>
        </mxCell>
        <mxCell id="AHpccQ2gOZ4yS9qdblrX-31" value="" style="line;html=1;strokeWidth=1;align=left;verticalAlign=middle;spacingTop=-1;spacingLeft=3;spacingRight=3;rotatable=0;labelPosition=right;points=[];portConstraint=eastwest;" vertex="1" parent="AHpccQ2gOZ4yS9qdblrX-30">
          <mxGeometry y="26" width="70" height="8" as="geometry" />
        </mxCell>
        <mxCell id="AHpccQ2gOZ4yS9qdblrX-37" value="" style="endArrow=none;html=1;rounded=0;" edge="1" parent="AHpccQ2gOZ4yS9qdblrX-139">
          <mxGeometry width="50" height="50" relative="1" as="geometry">
            <mxPoint x="320" y="200" as="sourcePoint" />
            <mxPoint x="320" y="180" as="targetPoint" />
          </mxGeometry>
        </mxCell>
        <mxCell id="AHpccQ2gOZ4yS9qdblrX-38" value="Record" style="swimlane;fontStyle=1;align=center;verticalAlign=top;childLayout=stackLayout;horizontal=1;startSize=26;horizontalStack=0;resizeParent=1;resizeLast=0;collapsible=1;marginBottom=0;rounded=0;shadow=0;strokeWidth=1;" vertex="1" parent="AHpccQ2gOZ4yS9qdblrX-139">
          <mxGeometry x="60" y="320" width="200" height="330" as="geometry">
            <mxRectangle x="230" y="140" width="160" height="26" as="alternateBounds" />
          </mxGeometry>
        </mxCell>
        <mxCell id="AHpccQ2gOZ4yS9qdblrX-39" value="+ name&#xa;+ phones&#xa;+ birthday&#xa;+ emails&#xa;+ address&#xa;&#xa;" style="text;align=left;verticalAlign=top;spacingLeft=4;spacingRight=4;overflow=hidden;rotatable=0;points=[[0,0.5],[1,0.5]];portConstraint=eastwest;" vertex="1" parent="AHpccQ2gOZ4yS9qdblrX-38">
          <mxGeometry y="26" width="200" height="74" as="geometry" />
        </mxCell>
        <mxCell id="AHpccQ2gOZ4yS9qdblrX-40" value="" style="line;html=1;strokeWidth=1;align=left;verticalAlign=middle;spacingTop=-1;spacingLeft=3;spacingRight=3;rotatable=0;labelPosition=right;points=[];portConstraint=eastwest;" vertex="1" parent="AHpccQ2gOZ4yS9qdblrX-38">
          <mxGeometry y="100" width="200" height="10" as="geometry" />
        </mxCell>
        <mxCell id="AHpccQ2gOZ4yS9qdblrX-44" value="+ add_name()&lt;br style=&quot;border-color: var(--border-color); padding: 0px; margin: 0px;&quot;&gt;&lt;span style=&quot;&quot;&gt;+ add_address()&lt;/span&gt;&lt;br style=&quot;border-color: var(--border-color); padding: 0px; margin: 0px;&quot;&gt;&lt;span style=&quot;&quot;&gt;+ add_phone()&lt;/span&gt;&lt;br style=&quot;border-color: var(--border-color); padding: 0px; margin: 0px;&quot;&gt;&lt;span style=&quot;&quot;&gt;+ add_email()&lt;/span&gt;&lt;br style=&quot;border-color: var(--border-color); padding: 0px; margin: 0px;&quot;&gt;&lt;div style=&quot;&quot;&gt;&lt;span style=&quot;background-color: initial;&quot;&gt;+ add_birthday()&lt;/span&gt;&lt;/div&gt;&lt;div style=&quot;&quot;&gt;&lt;span style=&quot;background-color: initial;&quot;&gt;+ change_name()&lt;/span&gt;&lt;/div&gt;&lt;div style=&quot;&quot;&gt;&lt;span style=&quot;background-color: initial;&quot;&gt;+ change_phone()&lt;/span&gt;&lt;/div&gt;+ change_birthday()&lt;br&gt;+ change_address()&lt;br&gt;+ change_email()&lt;br&gt;+ remove_address()&lt;br&gt;+ remove_birthday()&lt;br&gt;+ remove_phone()&lt;br&gt;+ remove_email()" style="text;html=1;align=left;verticalAlign=middle;resizable=0;points=[];autosize=1;strokeColor=none;fillColor=none;" vertex="1" parent="AHpccQ2gOZ4yS9qdblrX-38">
          <mxGeometry y="110" width="200" height="220" as="geometry" />
        </mxCell>
        <mxCell id="AHpccQ2gOZ4yS9qdblrX-54" value="" style="endArrow=open;html=1;endSize=12;startArrow=diamondThin;startSize=14;startFill=1;edgeStyle=orthogonalEdgeStyle;align=left;verticalAlign=bottom;rounded=0;entryX=0.5;entryY=1;entryDx=0;entryDy=0;" edge="1" parent="AHpccQ2gOZ4yS9qdblrX-139" target="AHpccQ2gOZ4yS9qdblrX-23">
          <mxGeometry x="-1" y="3" relative="1" as="geometry">
            <mxPoint x="84.57999999999998" y="320" as="sourcePoint" />
            <mxPoint x="84.57999999999998" y="260" as="targetPoint" />
          </mxGeometry>
        </mxCell>
        <mxCell id="AHpccQ2gOZ4yS9qdblrX-59" value="" style="endArrow=open;html=1;endSize=12;startArrow=diamondThin;startSize=14;startFill=1;edgeStyle=orthogonalEdgeStyle;align=left;verticalAlign=bottom;rounded=0;" edge="1" parent="AHpccQ2gOZ4yS9qdblrX-139">
          <mxGeometry x="-1" y="3" relative="1" as="geometry">
            <mxPoint x="160" y="320" as="sourcePoint" />
            <mxPoint x="160" y="240" as="targetPoint" />
          </mxGeometry>
        </mxCell>
        <mxCell id="AHpccQ2gOZ4yS9qdblrX-97" value="" style="endArrow=open;html=1;endSize=12;startArrow=diamondThin;startSize=14;startFill=1;edgeStyle=orthogonalEdgeStyle;align=left;verticalAlign=bottom;rounded=0;" edge="1" parent="AHpccQ2gOZ4yS9qdblrX-139">
          <mxGeometry x="-1" y="3" relative="1" as="geometry">
            <mxPoint x="260" y="330" as="sourcePoint" />
            <mxPoint x="310" y="240" as="targetPoint" />
            <Array as="points">
              <mxPoint x="310" y="330" />
            </Array>
          </mxGeometry>
        </mxCell>
        <mxCell id="AHpccQ2gOZ4yS9qdblrX-98" value="1" style="endArrow=open;html=1;endSize=12;startArrow=diamondThin;startSize=14;startFill=1;edgeStyle=orthogonalEdgeStyle;align=left;verticalAlign=bottom;rounded=0;exitX=-0.025;exitY=0.034;exitDx=0;exitDy=0;exitPerimeter=0;" edge="1" parent="AHpccQ2gOZ4yS9qdblrX-139" source="AHpccQ2gOZ4yS9qdblrX-38">
          <mxGeometry x="-1" y="3" relative="1" as="geometry">
            <mxPoint y="330" as="sourcePoint" />
            <mxPoint y="240" as="targetPoint" />
          </mxGeometry>
        </mxCell>
        <mxCell id="AHpccQ2gOZ4yS9qdblrX-99" value="" style="endArrow=open;html=1;endSize=12;startArrow=diamondThin;startSize=14;startFill=1;edgeStyle=orthogonalEdgeStyle;align=left;verticalAlign=bottom;rounded=0;" edge="1" parent="AHpccQ2gOZ4yS9qdblrX-139">
          <mxGeometry x="-1" y="3" relative="1" as="geometry">
            <mxPoint x="244.40999999999997" y="320" as="sourcePoint" />
            <mxPoint x="244.40999999999997" y="240" as="targetPoint" />
          </mxGeometry>
        </mxCell>
        <mxCell id="AHpccQ2gOZ4yS9qdblrX-129" value="AddressBook" style="swimlane;fontStyle=1;align=center;verticalAlign=top;childLayout=stackLayout;horizontal=1;startSize=26;horizontalStack=0;resizeParent=1;resizeParentMax=0;resizeLast=0;collapsible=1;marginBottom=0;whiteSpace=wrap;html=1;" vertex="1" parent="AHpccQ2gOZ4yS9qdblrX-139">
          <mxGeometry x="350" y="320" width="200" height="150" as="geometry" />
        </mxCell>
        <mxCell id="AHpccQ2gOZ4yS9qdblrX-131" value="" style="line;strokeWidth=1;fillColor=none;align=left;verticalAlign=middle;spacingTop=-1;spacingLeft=3;spacingRight=3;rotatable=0;labelPosition=right;points=[];portConstraint=eastwest;strokeColor=inherit;" vertex="1" parent="AHpccQ2gOZ4yS9qdblrX-129">
          <mxGeometry y="26" width="200" height="8" as="geometry" />
        </mxCell>
        <mxCell id="AHpccQ2gOZ4yS9qdblrX-132" value="+ add_record()&lt;br&gt;+ save_adress_book_to_file()&lt;br&gt;+ read_adress_book_from_file()&lt;br&gt;+ show_list_birthday()&lt;br&gt;+ find_person()&lt;br&gt;+ remove_record()" style="text;strokeColor=none;fillColor=none;align=left;verticalAlign=top;spacingLeft=4;spacingRight=4;overflow=hidden;rotatable=0;points=[[0,0.5],[1,0.5]];portConstraint=eastwest;whiteSpace=wrap;html=1;" vertex="1" parent="AHpccQ2gOZ4yS9qdblrX-129">
          <mxGeometry y="34" width="200" height="116" as="geometry" />
        </mxCell>
        <mxCell id="AHpccQ2gOZ4yS9qdblrX-137" value="" style="endArrow=open;html=1;endSize=12;startArrow=diamondThin;startSize=14;startFill=1;edgeStyle=orthogonalEdgeStyle;align=left;verticalAlign=bottom;rounded=0;" edge="1" parent="AHpccQ2gOZ4yS9qdblrX-139">
          <mxGeometry x="-1" y="3" relative="1" as="geometry">
            <mxPoint x="350" y="410" as="sourcePoint" />
            <mxPoint x="260" y="410" as="targetPoint" />
            <mxPoint as="offset" />
          </mxGeometry>
        </mxCell>
        <mxCell id="AHpccQ2gOZ4yS9qdblrX-144" value="&lt;font size=&quot;1&quot; style=&quot;&quot;&gt;&lt;b style=&quot;font-size: 20px;&quot;&gt;Notebook.py&lt;/b&gt;&lt;/font&gt;" style="text;html=1;strokeColor=none;fillColor=none;align=center;verticalAlign=middle;whiteSpace=wrap;rounded=0;" vertex="1" parent="WIyWlLk6GJQsqaUBKTNV-1">
          <mxGeometry x="370" y="40" width="230" height="30" as="geometry" />
        </mxCell>
        <mxCell id="AHpccQ2gOZ4yS9qdblrX-181" value="" style="group" vertex="1" connectable="0" parent="WIyWlLk6GJQsqaUBKTNV-1">
          <mxGeometry x="80" y="120" width="520" height="331" as="geometry" />
        </mxCell>
        <mxCell id="AHpccQ2gOZ4yS9qdblrX-163" value="" style="group" vertex="1" connectable="0" parent="AHpccQ2gOZ4yS9qdblrX-181">
          <mxGeometry width="280" height="151" as="geometry" />
        </mxCell>
        <mxCell id="AHpccQ2gOZ4yS9qdblrX-145" value="Field" style="swimlane;fontStyle=0;childLayout=stackLayout;horizontal=1;startSize=26;fillColor=none;horizontalStack=0;resizeParent=1;resizeParentMax=0;resizeLast=0;collapsible=1;marginBottom=0;whiteSpace=wrap;html=1;" vertex="1" parent="AHpccQ2gOZ4yS9qdblrX-163">
          <mxGeometry x="60" width="140" height="52" as="geometry" />
        </mxCell>
        <mxCell id="AHpccQ2gOZ4yS9qdblrX-146" value="- value" style="text;strokeColor=none;fillColor=none;align=left;verticalAlign=top;spacingLeft=4;spacingRight=4;overflow=hidden;rotatable=0;points=[[0,0.5],[1,0.5]];portConstraint=eastwest;whiteSpace=wrap;html=1;" vertex="1" parent="AHpccQ2gOZ4yS9qdblrX-145">
          <mxGeometry y="26" width="140" height="26" as="geometry" />
        </mxCell>
        <mxCell id="AHpccQ2gOZ4yS9qdblrX-149" value="Title" style="swimlane;fontStyle=0;childLayout=stackLayout;horizontal=1;startSize=26;fillColor=none;horizontalStack=0;resizeParent=1;resizeParentMax=0;resizeLast=0;collapsible=1;marginBottom=0;whiteSpace=wrap;html=1;" vertex="1" parent="AHpccQ2gOZ4yS9qdblrX-163">
          <mxGeometry y="110" width="80" height="40" as="geometry" />
        </mxCell>
        <mxCell id="AHpccQ2gOZ4yS9qdblrX-153" value="Note" style="swimlane;fontStyle=0;childLayout=stackLayout;horizontal=1;startSize=26;fillColor=none;horizontalStack=0;resizeParent=1;resizeParentMax=0;resizeLast=0;collapsible=1;marginBottom=0;whiteSpace=wrap;html=1;" vertex="1" parent="AHpccQ2gOZ4yS9qdblrX-163">
          <mxGeometry x="100" y="110" width="80" height="41" as="geometry" />
        </mxCell>
        <mxCell id="AHpccQ2gOZ4yS9qdblrX-154" value="Tag" style="swimlane;fontStyle=0;childLayout=stackLayout;horizontal=1;startSize=26;fillColor=none;horizontalStack=0;resizeParent=1;resizeParentMax=0;resizeLast=0;collapsible=1;marginBottom=0;whiteSpace=wrap;html=1;" vertex="1" parent="AHpccQ2gOZ4yS9qdblrX-163">
          <mxGeometry x="200" y="110" width="80" height="40" as="geometry" />
        </mxCell>
        <mxCell id="AHpccQ2gOZ4yS9qdblrX-156" value="" style="edgeStyle=segmentEdgeStyle;endArrow=blockThin;html=1;curved=0;rounded=0;endSize=8;startSize=8;endFill=0;" edge="1" parent="AHpccQ2gOZ4yS9qdblrX-163">
          <mxGeometry width="50" height="50" relative="1" as="geometry">
            <mxPoint x="40" y="80" as="sourcePoint" />
            <mxPoint x="130" y="50" as="targetPoint" />
          </mxGeometry>
        </mxCell>
        <mxCell id="AHpccQ2gOZ4yS9qdblrX-159" value="" style="endArrow=none;html=1;rounded=0;" edge="1" parent="AHpccQ2gOZ4yS9qdblrX-163">
          <mxGeometry width="50" height="50" relative="1" as="geometry">
            <mxPoint x="240" y="80" as="sourcePoint" />
            <mxPoint x="240" y="80" as="targetPoint" />
            <Array as="points">
              <mxPoint x="130" y="80" />
            </Array>
          </mxGeometry>
        </mxCell>
        <mxCell id="AHpccQ2gOZ4yS9qdblrX-161" value="" style="endArrow=none;html=1;rounded=0;exitX=0.398;exitY=-0.06;exitDx=0;exitDy=0;exitPerimeter=0;" edge="1" parent="AHpccQ2gOZ4yS9qdblrX-163" source="AHpccQ2gOZ4yS9qdblrX-153">
          <mxGeometry width="50" height="50" relative="1" as="geometry">
            <mxPoint x="50" y="120" as="sourcePoint" />
            <mxPoint x="130" y="80" as="targetPoint" />
            <Array as="points">
              <mxPoint x="130" y="108" />
            </Array>
          </mxGeometry>
        </mxCell>
        <mxCell id="AHpccQ2gOZ4yS9qdblrX-162" value="" style="endArrow=none;html=1;rounded=0;" edge="1" parent="AHpccQ2gOZ4yS9qdblrX-163">
          <mxGeometry width="50" height="50" relative="1" as="geometry">
            <mxPoint x="240" y="110" as="sourcePoint" />
            <mxPoint x="240" y="80" as="targetPoint" />
          </mxGeometry>
        </mxCell>
        <mxCell id="AHpccQ2gOZ4yS9qdblrX-180" value="" style="endArrow=none;html=1;rounded=0;exitX=0.5;exitY=0;exitDx=0;exitDy=0;" edge="1" parent="AHpccQ2gOZ4yS9qdblrX-163" source="AHpccQ2gOZ4yS9qdblrX-149">
          <mxGeometry width="50" height="50" relative="1" as="geometry">
            <mxPoint x="-10" y="131" as="sourcePoint" />
            <mxPoint x="40" y="81" as="targetPoint" />
          </mxGeometry>
        </mxCell>
        <mxCell id="AHpccQ2gOZ4yS9qdblrX-164" value="Record" style="swimlane;fontStyle=1;align=center;verticalAlign=top;childLayout=stackLayout;horizontal=1;startSize=26;horizontalStack=0;resizeParent=1;resizeParentMax=0;resizeLast=0;collapsible=1;marginBottom=0;whiteSpace=wrap;html=1;" vertex="1" parent="AHpccQ2gOZ4yS9qdblrX-181">
          <mxGeometry x="60" y="201" width="157" height="130" as="geometry" />
        </mxCell>
        <mxCell id="AHpccQ2gOZ4yS9qdblrX-165" value="+ title&lt;br&gt;+ note&lt;br&gt;+ tag" style="text;strokeColor=none;fillColor=none;align=left;verticalAlign=top;spacingLeft=4;spacingRight=4;overflow=hidden;rotatable=0;points=[[0,0.5],[1,0.5]];portConstraint=eastwest;whiteSpace=wrap;html=1;" vertex="1" parent="AHpccQ2gOZ4yS9qdblrX-164">
          <mxGeometry y="26" width="157" height="54" as="geometry" />
        </mxCell>
        <mxCell id="AHpccQ2gOZ4yS9qdblrX-166" value="" style="line;strokeWidth=1;fillColor=none;align=left;verticalAlign=middle;spacingTop=-1;spacingLeft=3;spacingRight=3;rotatable=0;labelPosition=right;points=[];portConstraint=eastwest;strokeColor=inherit;" vertex="1" parent="AHpccQ2gOZ4yS9qdblrX-164">
          <mxGeometry y="80" width="157" height="8" as="geometry" />
        </mxCell>
        <mxCell id="AHpccQ2gOZ4yS9qdblrX-167" value="&amp;nbsp;&amp;nbsp;" style="text;strokeColor=none;fillColor=none;align=left;verticalAlign=top;spacingLeft=4;spacingRight=4;overflow=hidden;rotatable=0;points=[[0,0.5],[1,0.5]];portConstraint=eastwest;whiteSpace=wrap;html=1;" vertex="1" parent="AHpccQ2gOZ4yS9qdblrX-164">
          <mxGeometry y="88" width="157" height="42" as="geometry" />
        </mxCell>
        <mxCell id="AHpccQ2gOZ4yS9qdblrX-168" value="" style="endArrow=open;html=1;endSize=12;startArrow=diamondThin;startSize=14;startFill=0;align=left;verticalAlign=bottom;rounded=0;entryX=0.5;entryY=1;entryDx=0;entryDy=0;exitX=0.151;exitY=-0.002;exitDx=0;exitDy=0;exitPerimeter=0;" edge="1" parent="AHpccQ2gOZ4yS9qdblrX-181" source="AHpccQ2gOZ4yS9qdblrX-164" target="AHpccQ2gOZ4yS9qdblrX-149">
          <mxGeometry x="-1" y="3" relative="1" as="geometry">
            <mxPoint x="-10" y="181" as="sourcePoint" />
            <mxPoint x="150" y="181" as="targetPoint" />
          </mxGeometry>
        </mxCell>
        <mxCell id="AHpccQ2gOZ4yS9qdblrX-169" value="" style="endArrow=open;html=1;endSize=12;startArrow=diamondThin;startSize=14;startFill=0;align=left;verticalAlign=bottom;rounded=0;entryX=0.5;entryY=1;entryDx=0;entryDy=0;exitX=0.876;exitY=-0.011;exitDx=0;exitDy=0;exitPerimeter=0;" edge="1" parent="AHpccQ2gOZ4yS9qdblrX-181" source="AHpccQ2gOZ4yS9qdblrX-164">
          <mxGeometry x="-1" y="3" relative="1" as="geometry">
            <mxPoint x="294" y="201" as="sourcePoint" />
            <mxPoint x="240" y="150" as="targetPoint" />
          </mxGeometry>
        </mxCell>
        <mxCell id="AHpccQ2gOZ4yS9qdblrX-170" value="" style="endArrow=open;html=1;endSize=12;startArrow=diamondThin;startSize=14;startFill=0;edgeStyle=orthogonalEdgeStyle;align=left;verticalAlign=bottom;rounded=0;" edge="1" parent="AHpccQ2gOZ4yS9qdblrX-181">
          <mxGeometry x="-1" y="3" relative="1" as="geometry">
            <mxPoint x="139.5" y="201" as="sourcePoint" />
            <mxPoint x="139.5" y="151" as="targetPoint" />
          </mxGeometry>
        </mxCell>
        <mxCell id="AHpccQ2gOZ4yS9qdblrX-171" value="NoteBook" style="swimlane;fontStyle=1;align=center;verticalAlign=top;childLayout=stackLayout;horizontal=1;startSize=26;horizontalStack=0;resizeParent=1;resizeParentMax=0;resizeLast=0;collapsible=1;marginBottom=0;whiteSpace=wrap;html=1;" vertex="1" parent="AHpccQ2gOZ4yS9qdblrX-181">
          <mxGeometry x="320" y="201" width="200" height="102" as="geometry" />
        </mxCell>
        <mxCell id="AHpccQ2gOZ4yS9qdblrX-172" value="" style="line;strokeWidth=1;fillColor=none;align=left;verticalAlign=middle;spacingTop=-1;spacingLeft=3;spacingRight=3;rotatable=0;labelPosition=right;points=[];portConstraint=eastwest;strokeColor=inherit;" vertex="1" parent="AHpccQ2gOZ4yS9qdblrX-171">
          <mxGeometry y="26" width="200" height="8" as="geometry" />
        </mxCell>
        <mxCell id="AHpccQ2gOZ4yS9qdblrX-173" value="+ add_record()&lt;br&gt;+ remove_record()&lt;br&gt;+ add_tag_to_record()" style="text;strokeColor=none;fillColor=none;align=left;verticalAlign=top;spacingLeft=4;spacingRight=4;overflow=hidden;rotatable=0;points=[[0,0.5],[1,0.5]];portConstraint=eastwest;whiteSpace=wrap;html=1;" vertex="1" parent="AHpccQ2gOZ4yS9qdblrX-171">
          <mxGeometry y="34" width="200" height="68" as="geometry" />
        </mxCell>
        <mxCell id="AHpccQ2gOZ4yS9qdblrX-174" value="" style="endArrow=open;html=1;endSize=12;startArrow=diamondThin;startSize=14;startFill=0;edgeStyle=orthogonalEdgeStyle;align=left;verticalAlign=bottom;rounded=0;" edge="1" parent="AHpccQ2gOZ4yS9qdblrX-181">
          <mxGeometry x="-1" y="3" relative="1" as="geometry">
            <mxPoint x="320" y="219" as="sourcePoint" />
            <mxPoint x="215" y="219" as="targetPoint" />
          </mxGeometry>
        </mxCell>
      </root>
    </mxGraphModel>
  </diagram>
</mxfile>
